<svg viewBox="0 0 512 512" xmlns="http://www.w3.org/2000/svg"><g style="fill:none;stroke:none;stroke-width:1"><path class="base" d="M481.495 176.894c-3.086 12.89-8.165 25.117-15.237 36.679-12.548 20.514-30.175 37.345-52.88 50.49 31.07 49.396 61.943 94.01 92.616 133.845l-1.196 8.963c-25.892 9.162-52.382 14.54-79.47 16.133l-8.365-6.573c-28.681-49.395-51.985-92.416-69.91-129.064h-57.96v7.767l3.585 121.895h-81.263l4.183-114.724-1.942-125.37m77.503-.014-.871 47.706 59.155 2.39c26.21-8.943 42.276-25.643 48.197-50.101" fill="#303030"/><path class="primary" d="m212.365 93.579-.95-61.354 147.588-.598c40.233 0 71.304 9.86 93.214 29.577 10.004 9.004 17.724 19.774 23.16 32.308" fill="#14e3e3"/><path class="base" d="m154.236 176.602-1.843 113.752 1.195 54.375c0 22.706-3.784 42.026-11.353 57.96-7.568 15.934-19.818 30.075-36.747 42.424-16.93 12.349-40.134 24.1-69.612 35.254l-24.498-43.022v-7.17c24.697-12.747 42.125-25.395 52.283-37.943 10.158-12.548 15.237-28.78 15.237-48.698v-45.412L76.787 176.74" fill="#303030"/><path class="primary" fill="#14e3e3" d="M75.313 91.977 11.975 93.77 6 87.794l4.183-55.57h146.393l-.999 61.622"/></g></svg>