<svg viewBox="0 0 512 512" version="1.1" id="svg5" xmlns="http://www.w3.org/2000/svg"><style>@media (prefers-color-scheme:dark){.primary{fill:#18ffff}.base{fill:#fff}}</style><g id="logo"><g id="JR" fill-rule="nonzero" style="fill:none;stroke:none;stroke-width:1" transform="translate(6 31.627) scale(.19531)"><g id="R" transform="translate(1051.738)"><path class="base" d="M1382.83 743.776c-15.801 66-41.807 128.6-78.015 187.798-64.247 105.037-154.498 191.21-270.753 258.515 159.086 252.907 317.153 481.338 474.2 685.295l-6.119 45.89c-132.572 46.91-268.203 74.445-406.894 82.603l-42.831-33.653c-146.849-252.906-266.164-473.18-357.944-660.82H397.716v39.771l18.356 624.109H0l21.415-587.396-9.94-641.903m396.821-.07-4.461 244.257 302.876 12.237c134.201-45.786 216.46-131.294 246.775-256.522" id="Shape" fill="#303030"/><path class="primary" d="M4.865 317.197 0 3.06 755.66 0c205.997 0 365.084 50.48 477.26 151.438 51.223 46.101 90.752 101.24 118.585 165.415" id="Path" fill="#14e3e3"/></g><g id="J" transform="translate(0 3.06)"><path class="base" d="m758.98 739.22-9.438 582.421 6.119 278.401c0 116.256-19.376 215.175-58.128 296.758-38.752 81.583-101.469 153.987-188.15 217.214-86.682 63.227-205.487 123.394-356.415 180.502L27.534 2074.242v-36.712c126.454-65.266 215.685-130.022 267.694-194.269 52.009-64.246 78.013-147.359 78.013-249.337v-232.511L362.433 739.93" id="path64" fill="#303030"/><path class="primary" id="polyline66" fill="#14e3e3" d="m354.885 305.935-324.291 9.179L0 284.52 21.415 0h749.542l-5.112 315.505"/></g></g></g></svg>