<svg viewBox="0 0 16 16" xmlns="http://www.w3.org/2000/svg"><g fill="#000" fill-rule="nonzero"><path d="M15.216 5.649a4.04 4.04 0 0 1-.488 1.173c-.401.657-.965 1.195-1.692 1.616A55.228 55.228 0 0 0 16 12.721l-.038.287a9.209 9.209 0 0 1-2.543.516l-.268-.21c-.918-1.58-1.664-2.957-2.237-4.13H9.059v.248l.115 3.901h-2.6l.133-3.671-.062-4.012m2.48 0-.028 1.526 1.893.077c.84-.287 1.353-.821 1.543-1.604M6.604 2.982l-.03-1.963L11.295 1c1.288 0 2.282.315 2.983.946.32.289.567.633.741 1.034M4.744 5.64l-.06 3.64.039 1.74c0 .726-.121 1.344-.363 1.854-.243.51-.635.963-1.176 1.358-.542.395-1.285.77-2.228 1.128l-.784-1.377v-.23c.79-.407 1.348-.812 1.673-1.213.325-.402.488-.921.488-1.559V9.528l-.068-3.884M2.218 2.931.191 2.99 0 2.797.134 1.02h4.684l-.031 1.972"/></g></svg>