<?xml version="1.0" encoding="UTF-8"?>
<svg width="16px" height="16px" viewBox="0 0 16 16" version="1.1" xmlns="http://www.w3.org/2000/svg" xmlns:xlink="http://www.w3.org/1999/xlink">
    <title>JR</title>
    <g id="Page-1" stroke="none" stroke-width="1" fill="none" fill-rule="evenodd">
        <g id="JR" transform="translate(0.000000, 1.000000)" fill="#000000" fill-rule="nonzero">
            <g id="R" transform="translate(6.573363, 0.000000)">
                <path d="M8.64268981,4.64859809 C8.54392838,5.06110054 8.38139587,5.45234596 8.15509229,5.82233435 C7.75355199,6.47882087 7.18948347,7.01739477 6.46288673,7.43805604 C7.457177,9.01872261 8.44509361,10.4464215 9.42663657,11.7211526 L9.38839464,12.0079671 C8.55981941,12.3011552 7.71212322,12.4732439 6.84530607,12.5242332 L6.57761253,12.3139025 C5.65980613,10.733236 4.91408843,9.35652636 4.34045943,8.18377374 L2.48572567,8.18377374 L2.48572567,8.4323463 L2.60045147,12.3330235 L-1.42108547e-15,12.3330235 L0.133846767,8.6617979 L0.0717157287,4.64990802 M2.5518507,4.64947247 L2.5239676,6.17607223 L4.4169433,6.2525561 C5.25570073,5.9663918 5.76981575,5.43197154 5.95928836,4.64929532" id="Shape"></path>
                <path d="M0.0304060494,1.98248301 L-1.42108547e-15,0.0191209667 L4.72287877,0 C6.01035719,0 7.00464746,0.31549595 7.70574957,0.94648785 C8.02589646,1.23462005 8.27294841,1.57923471 8.44690543,1.98033182" id="Path"></path>
            </g>
            <g id="J" transform="translate(0.000000, 0.019121)">
                <path d="M4.74362046,4.62012501 L4.68463683,8.2602576 L4.72287877,10.0002656 C4.72287877,10.7268623 4.60177931,11.3451069 4.3595804,11.8549993 C4.11738149,12.3648918 3.72540167,12.8174213 3.18364095,13.212588 C2.64188023,13.6077546 1.89934936,13.9838003 0.956048334,14.340725 L0.1720887,12.9640154 L0.1720887,12.7345638 C0.962421989,12.3266498 1.52011685,11.9219227 1.84517328,11.5203824 C2.17022972,11.1188421 2.33275793,10.5993892 2.33275793,9.96202364 L2.33275793,8.50883017 L2.26520554,4.62456767" id="Shape"></path>
                <polyline id="Path" points="2.21803213 1.91209667 0.191209667 1.96945957 0 1.7782499 0.133846767 0 4.8184836 0 4.78653146 1.97190353"></polyline>
            </g>
        </g>
    </g>
</svg>